<?xml version="1.0" encoding="utf-8"?>
<!-- Generator: Adobe Illustrator 26.0.2, SVG Export Plug-In . SVG Version: 6.00 Build 0)  -->
<svg version="1.1" id="Layer_1" xmlns="http://www.w3.org/2000/svg" xmlns:xlink="http://www.w3.org/1999/xlink" x="0px" y="0px"
	 width="150px" height="39.8px" viewBox="0 0 150 39.8" enable-background="new 0 0 150 39.8" xml:space="preserve">
<path fill="#2A276E" d="M135.7,18.2c-2-0.8-3-1.6-3-2.8c0-0.8,0.8-1.8,2.2-1.8c1.4,0,3.3,1.3,3.5,1.4c0.3,0.2,0.7,0,0.9-0.3l1-1.4
	c0.2-0.3,0.1-0.6-0.1-0.8c-0.5-0.4-2.5-1.7-5-1.7c-4,0-5.6,2.6-5.6,4.8c0,3,2.4,4.5,4.7,5.4c2.1,0.9,3.2,1.7,3.2,3
	c0,1.1-1,1.9-2.3,1.9c-1.6,0-3.7-1.5-3.8-1.5c-0.3-0.2-0.6-0.1-0.8,0.1c0,0,0,0,0,0.1l-0.9,1.5c-0.2,0.4-0.1,0.5,0.1,0.8
	c0.5,0.5,2.4,2,5.5,2c3.5,0,5.8-2.4,5.8-5C140.9,20.6,138.1,19.2,135.7,18.2z"/>
<path fill="#2A276E" d="M124.9,11h-2.8v17.1c0,0.3,0.2,0.5,0.5,0.5h2.8V11.5C125.4,11.2,125.2,11,124.9,11z"/>
<path fill="#2A276E" d="M114.4,21.5c2.2-0.9,3.7-2.7,3.7-5.1c0-3-2.5-5.4-5.5-5.4H105v17.1c0,0.3,0.2,0.5,0.5,0.5c0,0,0,0,0,0h2.8
	v-6.9h2.8l3.3,6.6c0.1,0.1,0.2,0.2,0.4,0.2h3.4L114.4,21.5z M112.4,19h-4.1v-5h4.1c1.3,0,2.5,1.1,2.5,2.4
	C114.9,17.9,113.7,19,112.4,19z"/>
<path fill="#2A276E" d="M82.6,11.1c-0.1-0.2-0.2-0.3-0.4-0.3h-0.3c-0.2,0-0.4,0.1-0.4,0.3l-8.1,17.5h2.9c0.3,0,0.6-0.2,0.7-0.5
	l1.2-2.7h7.5l1.2,2.7c0.2,0.3,0.3,0.5,0.7,0.5h2.9L82.6,11.1z M79.5,22.6l2.5-5.5H82l2.5,5.5L79.5,22.6z"/>
<path fill="#2A276E" d="M101.3,11H89.9v2.5c0,0.3,0.2,0.5,0.5,0.5l0,0h3.8v14c0,0.3,0.2,0.5,0.5,0.5h2.8V14h4.3v-2.5
	C101.8,11.2,101.6,11,101.3,11C101.3,11,101.3,11,101.3,11z"/>
<path fill="#2A276E" d="M70.5,11h-2.8v17.1c0,0.3,0.2,0.5,0.5,0.5h2.8V11.5C70.9,11.2,70.7,11,70.5,11z"/>
<path fill="#2A276E" d="M61.3,10.9c-0.2,0-0.4,0.1-0.4,0.3L56,22h-0.2L51,11.2c-0.1-0.2-0.2-0.3-0.4-0.3h-3.3l8,17.5
	c0.1,0.2,0.2,0.3,0.4,0.3h0.3c0.2,0,0.4-0.1,0.4-0.3l8.1-17.5H61.3z"/>
<path fill="#703E97" d="M29,27.9C15.7,38.3,2.5,20.5,4.5,10.5c0,0,0-0.1,0-0.1c0,0,0,0,0,0c-5.1,9.1-2,20.6,7,26
	c0.3,0.2,0.5,0.3,0.8,0.3C14.7,37.5,23.2,38.5,29,27.9C29.1,28,29.1,27.9,29,27.9C29.1,27.9,29.1,27.9,29,27.9z"/>
<path fill="#F1CB14" d="M24.5,9.2c15.6,6.4,6.8,26.7-2.8,29.9c0,0,0,0,0,0.1c0,0,0,0,0.1,0c10.4-0.2,18.8-8.6,19-19
	c0-0.3,0-0.6-0.1-0.9C39.9,16.9,36.6,9,24.5,9.2C24.4,9.2,24.4,9.2,24.5,9.2C24.4,9.2,24.4,9.2,24.5,9.2z"/>
<path fill="#2A276E" d="M10.6,22.5C8.3,5.8,30.3,3.3,37.9,10c0,0,0,0,0.1,0c0,0,0,0,0-0.1C32.6,1,21.1-2.1,12,3
	c-0.3,0.1-0.5,0.3-0.7,0.5C9.5,5.4,4.3,12.2,10.6,22.5C10.5,22.6,10.5,22.6,10.6,22.5C10.6,22.6,10.6,22.6,10.6,22.5z"/>
<path fill="#2A276E" d="M29.5,16.1c0,0,0-0.1,0-0.1c-0.1-0.2-0.2-0.5-0.4-0.7L29,15.2c-2.6-4.2-8.1-5.5-12.3-3c-1.2,0.7-2.2,1.8-3,3
	l-0.1,0.1c-0.1,0.2-0.2,0.4-0.4,0.7c0,0,0,0.1,0,0.1c-1.1,2.4-1.1,5.1-0.1,7.5c0,0,0,0.1,0.1,0.1c0.1,0.2,0.2,0.4,0.3,0.7
	c0,0,0,0.1,0.1,0.1c2.5,4.3,8,5.7,12.3,3.1c1.3-0.8,2.4-1.8,3.1-3.1c0,0,0-0.1,0.1-0.1c0.1-0.2,0.2-0.4,0.3-0.7c0,0,0-0.1,0.1-0.1
	C30.6,21.2,30.6,18.5,29.5,16.1L29.5,16.1z M28.6,16.1c0.5,1,0.8,2.1,0.9,3.3H26c0-1.1-0.2-2.2-0.4-3.3l0-0.1h3L28.6,16.1z
	 M25.2,20.3c0,1.1-0.2,2.2-0.4,3.3h-3.1v-3.3l0,0v-0.1h3.5C25.2,20.2,25.2,20.3,25.2,20.3L25.2,20.3z M17.9,23.6
	c-0.2-1.1-0.4-2.2-0.4-3.3c0,0,0-0.1,0-0.1H21v0.1l0,0v3.3L17.9,23.6z M17.9,16.1c0,0,0-0.1,0-0.1h3v3.4h-3.5
	C17.5,18.3,17.7,17.2,17.9,16.1L17.9,16.1z M24.8,16c0,0,0,0.1,0,0.1c0.3,1.1,0.4,2.2,0.4,3.3h-3.5V16L24.8,16z M28.1,15.2h-2.7
	c-0.4-1.3-1-2.4-1.7-3.1c0,0,0,0,0,0c0,0,0,0,0,0C25.5,12.6,27,13.7,28.1,15.2L28.1,15.2z M21.8,11.8c1.1,0.3,2.1,1.6,2.7,3.5h-2.8
	L21.8,11.8C21.7,11.8,21.8,11.8,21.8,11.8C21.8,11.8,21.8,11.8,21.8,11.8L21.8,11.8z M21,11.8v3.4h-2.8C18.8,13.3,19.8,12,21,11.8
	C20.9,11.8,21,11.8,21,11.8C21,11.8,21,11.8,21,11.8L21,11.8z M19.1,12.1c-0.7,0.7-1.3,1.8-1.7,3.1h-2.7
	C15.7,13.7,17.3,12.6,19.1,12.1C19,12.1,19.1,12.1,19.1,12.1C19.1,12.1,19.1,12.1,19.1,12.1L19.1,12.1z M14.1,16.1l0.1-0.1h3l0,0.1
	c-0.3,1.1-0.4,2.2-0.4,3.3h-3.5C13.3,18.2,13.6,17.1,14.1,16.1z M13.2,20.3c0,0,0-0.1,0-0.1h3.5v0.1c0,1.1,0.2,2.2,0.4,3.3h-3.1
	C13.5,22.5,13.2,21.4,13.2,20.3L13.2,20.3z M14.5,24.4h2.8l0,0.1c0.4,1.3,1,2.5,1.7,3.2c0,0,0,0,0,0c0,0,0,0,0,0
	C17.2,27.2,15.6,26,14.5,24.4L14.5,24.4z M21,24.5V28c0,0,0,0,0,0c0,0,0,0,0,0c-1.2-0.3-2.2-1.7-2.8-3.7H21L21,24.5z M21.8,28
	C21.8,28.1,21.8,28,21.8,28C21.8,28,21.8,28,21.8,28l-0.1-3.7h2.9C24,26.4,23,27.8,21.8,28L21.8,28z M28.2,24.4
	c-1.1,1.6-2.7,2.8-4.5,3.4c0,0,0,0,0,0c0,0,0,0,0,0c0.7-0.8,1.3-1.9,1.7-3.2l0-0.1L28.2,24.4L28.2,24.4z M29.5,20.3
	c-0.1,1.1-0.3,2.3-0.9,3.3h-3.1c0.2-1.1,0.4-2.2,0.4-3.3v-0.1h3.5C29.5,20.2,29.5,20.3,29.5,20.3L29.5,20.3z"/>
</svg>
